# xmcd
#
# Track frame offsets:
# 150
# 18155
# 33580
# 48537
# 66970
# 89977
# 107679
# 124715
# 137460
# 153990
# 167815
# 181465
# 197252
# 212612
#
# Disc length: 3041 seconds
#
#
# Revision: 2
# Processed by: cddbd v1.4PL0 Copyright (c) Steve Scherf et al.
# Submitted via: FreeRIP 2.52 
#
DISCID=bf0bdf0e
DTITLE=Vários - Forró 2001
DYEAR=2001
DGENRE=Tribal
TTITLE0=Fala Mansa - Xote dos Milagres
TTITLE1=Rastapé - Colo de Menina
TTITLE2=Peixe Elétrico - Levante e Dance
TTITLE3=Trio Virgolino - Selva de Feras
TTITLE4=Trio Nordestino - Menino de Colo_O Nenen_Paixão Beata
TTITLE5=Fala Mansa - To Rindo a Tôa
TTITLE6=Miltinho Edilberto - Beijo Contido
TTITLE7=Trio Forrozão - Xote Capixaba
TTITLE8=Rastapé - Beijo Roubado
TTITLE9=Banda Quenga de Côco - Noronha
TTITLE10=Trio Jerimun - Taturana
TTITLE11=Rastapé Baião de 4 - Língua de Jacaré
TTITLE12=Miltinho Edilberto - Quem Tá Parado é Viado
TTITLE13=Graziela - De Bem Com A Vida
EXTD=YEAR: 2001 ID3G: 72
EXTT0=
EXTT1=
EXTT2=
EXTT3=
EXTT4=
EXTT5=
EXTT6=
EXTT7=
EXTT8=
EXTT9=
EXTT10=
EXTT11=
EXTT12=
EXTT13=
PLAYORDER=
